<?xml version="1.0" encoding="UTF-8"?>
<svg id="Layer_2" data-name="Layer 2" xmlns="http://www.w3.org/2000/svg" viewBox="0 0 439.78 497.66">
  <defs>
    <style>
      .cls-1 {
        fill: #000;
        stroke-width: 0px;
      }
    </style>
  </defs>
  <g id="Layer_1-2" data-name="Layer 1" transform="translate(109.945, 124.415) scale(0.5)">
    <path class="cls-1" d="M438.24,83.75c-.38-17.9-10.28-34.23-25.96-42.85l-63.16-34.71c-15.69-8.62-34.78-8.22-50.09,1.06L75.78,142.51c-15.31,9.28-24.51,26.01-24.13,43.91l1.52,72.06c.14,6.76,1.65,13.29,4.3,19.27l-33.34,20.2C8.83,307.22-.37,323.95.01,341.85l1.52,72.06c.38,17.9,10.27,34.23,25.96,42.85l63.16,34.71c15.69,8.62,34.78,8.22,50.09-1.06l223.24-135.26c15.31-9.28,24.51-26.01,24.13-43.91l-1.52-72.06c-.14-6.76-1.65-13.29-4.3-19.27l33.34-20.2c15.31-9.28,24.51-26.01,24.13-43.91l-1.52-72.06ZM346.44,328.89l-214.63,130.04c-8.4,5.09-19.19-.6-19.74-10.4l-2.62-46.46c-.47-8.25,3.66-16.07,10.72-20.35l214.63-130.04c8.4-5.09,19.19.6,19.74,10.4l2.62,46.46c.47,8.25-3.66,16.07-10.72,20.35ZM398.09,173.46l-37.61,22.79-177.02,107.25c-8.4,5.09-19.19-.6-19.74-10.4l-2.62-46.46c-.47-8.25,3.66-16.07,10.72-20.35l114.22-69.2,100.41-60.84c8.4-5.09,19.19.6,19.74,10.4l2.62,46.46c.47,8.25-3.66,16.07-10.72,20.35Z"/>
  </g>
</svg>
